<svg class="icon" viewBox="0 0 1024 1024" xmlns="http://www.w3.org/2000/svg" width="200" height="200"><defs><style/></defs><path d="M512 1019.345c-232.727 0-418.91-186.181-418.91-418.909S279.274 181.527 512 181.527s418.91 186.182 418.91 418.91S744.726 1019.344 512 1019.344zm0-744.727c-181.527 0-325.818 144.291-325.818 325.818S330.472 926.255 512 926.255s325.818-144.291 325.818-325.819S693.528 274.618 512 274.618zm325.818-88.436c-51.2-41.891-111.709-74.473-176.873-93.091l27.928-88.436c74.472 23.272 144.29 60.509 204.8 111.709l-55.855 69.818zm-646.982 0l-60.509-74.473C190.837 60.51 260.655 23.273 335.127 0l27.928 93.09c-65.164 18.62-121.019 51.2-172.219 93.092z"/><path d="M656.29 656.29H432.874V432.874h93.09V563.2h130.328z"/></svg>